<svg width="27" height="25" viewBox="0 0 27 25" fill="none" xmlns="http://www.w3.org/2000/svg">
<path d="M17.4998 21.8333V20.5H14.8332C14.0998 20.5 13.4721 20.2389 12.9498 19.7167C12.4276 19.1944 12.1665 18.5667 12.1665 17.8333V7.16667H9.49984V8.5C9.49984 9.23333 9.23873 9.86111 8.7165 10.3833C8.19428 10.9056 7.5665 11.1667 6.83317 11.1667H2.83317C2.09984 11.1667 1.47206 10.9056 0.949837 10.3833C0.427615 9.86111 0.166504 9.23333 0.166504 8.5V3.16667C0.166504 2.43333 0.427615 1.80556 0.949837 1.28333C1.47206 0.761111 2.09984 0.5 2.83317 0.5H6.83317C7.5665 0.5 8.19428 0.761111 8.7165 1.28333C9.23873 1.80556 9.49984 2.43333 9.49984 3.16667V4.5H17.4998V3.16667C17.4998 2.43333 17.7609 1.80556 18.2832 1.28333C18.8054 0.761111 19.4332 0.5 20.1665 0.5H24.1665C24.8998 0.5 25.5276 0.761111 26.0498 1.28333C26.5721 1.80556 26.8332 2.43333 26.8332 3.16667V8.5C26.8332 9.23333 26.5721 9.86111 26.0498 10.3833C25.5276 10.9056 24.8998 11.1667 24.1665 11.1667H20.1665C19.4332 11.1667 18.8054 10.9056 18.2832 10.3833C17.7609 9.86111 17.4998 9.23333 17.4998 8.5V7.16667H14.8332V17.8333H17.4998V16.5C17.4998 15.7667 17.7609 15.1389 18.2832 14.6167C18.8054 14.0944 19.4332 13.8333 20.1665 13.8333H24.1665C24.8998 13.8333 25.5276 14.0944 26.0498 14.6167C26.5721 15.1389 26.8332 15.7667 26.8332 16.5V21.8333C26.8332 22.5667 26.5721 23.1944 26.0498 23.7167C25.5276 24.2389 24.8998 24.5 24.1665 24.5H20.1665C19.4332 24.5 18.8054 24.2389 18.2832 23.7167C17.7609 23.1944 17.4998 22.5667 17.4998 21.8333ZM20.1665 8.5H24.1665V3.16667H20.1665V8.5ZM20.1665 21.8333H24.1665V16.5H20.1665V21.8333ZM2.83317 8.5H6.83317V3.16667H2.83317V8.5Z" fill="#BCCAFD"/>
</svg>
