<svg width="26" height="19" viewBox="0 0 26 19" fill="none" xmlns="http://www.w3.org/2000/svg">
<path d="M12.1665 16.1667C11.8554 13.3444 10.7165 10.9611 8.74984 9.01666C6.78317 7.07221 4.41095 5.93332 1.63317 5.59999C1.23317 5.55555 0.888726 5.39999 0.599837 5.13332C0.310948 4.86666 0.166504 4.54443 0.166504 4.16666C0.166504 3.78888 0.299837 3.47221 0.566504 3.21666C0.833171 2.9611 1.15539 2.85555 1.53317 2.89999C4.13317 3.14443 6.49428 3.99999 8.6165 5.46666C10.7387 6.93332 12.3665 8.85555 13.4998 11.2333C14.3443 9.43332 15.4554 7.83888 16.8332 6.44999C18.2109 5.0611 19.7554 3.85555 21.4665 2.83332H17.4998C17.1221 2.83332 16.8054 2.70555 16.5498 2.44999C16.2943 2.19443 16.1665 1.87777 16.1665 1.49999C16.1665 1.12221 16.2943 0.805545 16.5498 0.54999C16.8054 0.294434 17.1221 0.166656 17.4998 0.166656H24.1665C24.5443 0.166656 24.8609 0.294434 25.1165 0.54999C25.3721 0.805545 25.4998 1.12221 25.4998 1.49999V8.16666C25.4998 8.54443 25.3721 8.8611 25.1165 9.11666C24.8609 9.37221 24.5443 9.49999 24.1665 9.49999C23.7887 9.49999 23.4721 9.37221 23.2165 9.11666C22.9609 8.8611 22.8332 8.54443 22.8332 8.16666V5.09999C20.7665 6.36666 18.9887 7.93332 17.4998 9.79999C16.0109 11.6667 15.1221 13.7889 14.8332 16.1667H16.1665C16.5443 16.1667 16.861 16.2944 17.1165 16.55C17.3721 16.8055 17.4998 17.1222 17.4998 17.5C17.4998 17.8778 17.3721 18.1944 17.1165 18.45C16.861 18.7055 16.5443 18.8333 16.1665 18.8333H10.8332C10.4554 18.8333 10.1387 18.7055 9.88317 18.45C9.62761 18.1944 9.49984 17.8778 9.49984 17.5C9.49984 17.1222 9.62761 16.8055 9.88317 16.55C10.1387 16.2944 10.4554 16.1667 10.8332 16.1667H12.1665Z" fill="#BCCAFD"/>
</svg>
