<svg width="25" height="25" viewBox="0 0 25 25" fill="none" xmlns="http://www.w3.org/2000/svg">
<path d="M3.16667 24.5C2.43333 24.5 1.80556 24.2389 1.28333 23.7167C0.761111 23.1944 0.5 22.5667 0.5 21.8333V8.5C0.5 7.76667 0.761111 7.13889 1.28333 6.61667C1.80556 6.09444 2.43333 5.83333 3.16667 5.83333H5.83333V3.16667C5.83333 2.43333 6.09444 1.80556 6.61667 1.28333C7.13889 0.761111 7.76667 0.5 8.5 0.5H16.5C17.2333 0.5 17.8611 0.761111 18.3833 1.28333C18.9056 1.80556 19.1667 2.43333 19.1667 3.16667V11.1667H21.8333C22.5667 11.1667 23.1944 11.4278 23.7167 11.95C24.2389 12.4722 24.5 13.1 24.5 13.8333V21.8333C24.5 22.5667 24.2389 23.1944 23.7167 23.7167C23.1944 24.2389 22.5667 24.5 21.8333 24.5H13.8333V19.1667H11.1667V24.5H3.16667ZM3.16667 21.8333H5.83333V19.1667H3.16667V21.8333ZM3.16667 16.5H5.83333V13.8333H3.16667V16.5ZM3.16667 11.1667H5.83333V8.5H3.16667V11.1667ZM8.5 16.5H11.1667V13.8333H8.5V16.5ZM8.5 11.1667H11.1667V8.5H8.5V11.1667ZM8.5 5.83333H11.1667V3.16667H8.5V5.83333ZM13.8333 16.5H16.5V13.8333H13.8333V16.5ZM13.8333 11.1667H16.5V8.5H13.8333V11.1667ZM13.8333 5.83333H16.5V3.16667H13.8333V5.83333ZM19.1667 21.8333H21.8333V19.1667H19.1667V21.8333ZM19.1667 16.5H21.8333V13.8333H19.1667V16.5Z" fill="#FF9B78"/>
</svg>
