<svg width="28" height="28" viewBox="0 0 28 28" fill="none" xmlns="http://www.w3.org/2000/svg">
<path d="M13.9998 27.3333C12.1554 27.3333 10.4221 26.9833 8.79984 26.2833C7.17761 25.5833 5.7665 24.6333 4.5665 23.4333C3.3665 22.2333 2.4165 20.8222 1.7165 19.2C1.0165 17.5777 0.666504 15.8444 0.666504 14C0.666504 12.1555 1.0165 10.4222 1.7165 8.79996C2.4165 7.17774 3.3665 5.76663 4.5665 4.56663C5.7665 3.36663 7.17761 2.41663 8.79984 1.71663C10.4221 1.01663 12.1554 0.666626 13.9998 0.666626C15.8443 0.666626 17.5776 1.01663 19.1998 1.71663C20.8221 2.41663 22.2332 3.36663 23.4332 4.56663C24.6332 5.76663 25.5832 7.17774 26.2832 8.79996C26.9832 10.4222 27.3332 12.1555 27.3332 14C27.3332 15.8444 26.9832 17.5777 26.2832 19.2C25.5832 20.8222 24.6332 22.2333 23.4332 23.4333C22.2332 24.6333 20.8221 25.5833 19.1998 26.2833C17.5776 26.9833 15.8443 27.3333 13.9998 27.3333ZM13.9998 24.6666C15.1998 24.6666 16.3554 24.4722 17.4665 24.0833C18.5776 23.6944 19.5998 23.1333 20.5332 22.4L5.59984 7.46663C4.8665 8.39996 4.30539 9.42218 3.9165 10.5333C3.52761 11.6444 3.33317 12.8 3.33317 14C3.33317 16.9777 4.3665 19.5 6.43317 21.5666C8.49984 23.6333 11.0221 24.6666 13.9998 24.6666ZM22.3998 20.5333C23.1332 19.6 23.6943 18.5777 24.0832 17.4666C24.4721 16.3555 24.6665 15.2 24.6665 14C24.6665 11.0222 23.6332 8.49996 21.5665 6.43329C19.4998 4.36663 16.9776 3.33329 13.9998 3.33329C12.7998 3.33329 11.6443 3.52774 10.5332 3.91663C9.42206 4.30551 8.39984 4.86663 7.4665 5.59996L22.3998 20.5333Z" fill="#BCCAFD"/>
</svg>
