<svg width="27" height="27" viewBox="0 0 27 27" fill="none" xmlns="http://www.w3.org/2000/svg">
<path d="M13.4999 21.5C11.9222 21.5 10.4722 21.0833 9.14994 20.25C7.82771 19.4167 6.84438 18.2778 6.19994 16.8333C6.0666 16.5222 6.0666 16.2111 6.19994 15.9C6.33327 15.5889 6.5666 15.3667 6.89994 15.2333C7.23327 15.0778 7.58327 15.0722 7.94994 15.2167C8.3166 15.3611 8.58882 15.6222 8.7666 16C9.23327 16.8667 9.88882 17.5556 10.7333 18.0667C11.5777 18.5778 12.4999 18.8333 13.4999 18.8333C14.9666 18.8333 16.2222 18.3111 17.2666 17.2667C18.311 16.2222 18.8333 14.9667 18.8333 13.5C18.8333 12.5 18.5722 11.5833 18.0499 10.75C17.5277 9.91667 16.8333 9.26667 15.9666 8.8C15.611 8.62222 15.3666 8.35 15.2333 7.98333C15.0999 7.61666 15.111 7.26666 15.2666 6.93333C15.4222 6.6 15.6499 6.36666 15.9499 6.23333C16.2499 6.1 16.5555 6.1 16.8666 6.23333C18.2666 6.87778 19.3888 7.86111 20.2333 9.18333C21.0777 10.5056 21.4999 11.9444 21.4999 13.5C21.4999 15.7222 20.7222 17.6111 19.1666 19.1667C17.611 20.7222 15.7222 21.5 13.4999 21.5ZM13.4999 26.8333C9.98882 26.8333 6.94438 25.6444 4.3666 23.2667C1.78883 20.8889 0.377714 17.9667 0.13327 14.5C0.111047 14.1444 0.216603 13.8333 0.449936 13.5667C0.68327 13.3 0.988825 13.1556 1.3666 13.1333C1.74438 13.1111 2.08327 13.2278 2.38327 13.4833C2.68327 13.7389 2.85549 14.0667 2.89994 14.4667C3.25549 17.2222 4.44994 19.5278 6.48327 21.3833C8.5166 23.2389 10.8555 24.1667 13.4999 24.1667C16.4777 24.1667 18.9999 23.1333 21.0666 21.0667C23.1333 19 24.1666 16.4778 24.1666 13.5C24.1666 10.7222 23.2444 8.32778 21.3999 6.31666C19.5555 4.30555 17.2333 3.16667 14.4333 2.9C14.0333 2.85555 13.7055 2.68889 13.4499 2.4C13.1944 2.11111 13.0777 1.77778 13.0999 1.4C13.1222 1.02222 13.2666 0.71111 13.5333 0.466665C13.7999 0.222221 14.111 0.11111 14.4666 0.133332C16.1999 0.244443 17.8166 0.677776 19.3166 1.43333C20.8166 2.18889 22.1222 3.17222 23.2333 4.38333C24.3444 5.59444 25.2222 6.98333 25.8666 8.55C26.511 10.1167 26.8333 11.7667 26.8333 13.5C26.8333 15.3444 26.4833 17.0778 25.7833 18.7C25.0833 20.3222 24.1333 21.7333 22.9333 22.9333C21.7333 24.1333 20.3222 25.0833 18.6999 25.7833C17.0777 26.4833 15.3444 26.8333 13.4999 26.8333ZM10.2333 12.8333L5.83327 8.46666L4.83327 11.5C4.72216 11.8111 4.51105 11.9611 4.19994 11.95C3.88883 11.9389 3.67771 11.7778 3.5666 11.4667L0.53327 1.36667C0.444381 1.1 0.494381 0.872221 0.68327 0.683332C0.872158 0.494443 1.09994 0.444443 1.3666 0.533332L11.4666 3.56667C11.7777 3.67778 11.9388 3.88889 11.9499 4.2C11.961 4.51111 11.811 4.72222 11.4999 4.83333L8.4666 5.83333L12.8666 10.2333C13.2444 10.6111 13.4333 11.0444 13.4333 11.5333C13.4333 12.0222 13.2444 12.4556 12.8666 12.8333C12.4888 13.2111 12.0499 13.4 11.5499 13.4C11.0499 13.4 10.611 13.2111 10.2333 12.8333Z" fill="#BCCAFD"/>
</svg>
