<svg width="27" height="27" viewBox="0 0 27 27" fill="none" xmlns="http://www.w3.org/2000/svg">
<path d="M7.46624 12.1334C7.77735 11.5111 8.09958 10.9111 8.43291 10.3334C8.76624 9.75558 9.13291 9.1778 9.53291 8.60003L7.66624 8.23336L4.86624 11.0334L7.46624 12.1334ZM23.5329 2.96669C21.9774 3.01114 20.3162 3.46669 18.5496 4.33336C16.7829 5.20003 15.1774 6.35558 13.7329 7.80003C12.7996 8.73336 11.9662 9.73336 11.2329 10.8C10.4996 11.8667 9.95513 12.8667 9.59958 13.8L13.3996 17.5667C14.3329 17.2111 15.3329 16.6667 16.3996 15.9334C17.4662 15.2 18.4662 14.3667 19.3996 13.4334C20.844 11.9889 21.9996 10.3889 22.8662 8.63336C23.7329 6.8778 24.1885 5.22225 24.2329 3.66669C24.2329 3.5778 24.2162 3.48891 24.1829 3.40003C24.1496 3.31114 24.0996 3.23336 24.0329 3.16669C23.9662 3.10003 23.8885 3.05003 23.7996 3.01669C23.7107 2.98336 23.6218 2.96669 23.5329 2.96669ZM16.1996 10.9667C15.6885 10.4556 15.4329 9.8278 15.4329 9.08336C15.4329 8.33892 15.6885 7.71114 16.1996 7.20003C16.7107 6.68892 17.344 6.43336 18.0996 6.43336C18.8551 6.43336 19.4885 6.68892 19.9996 7.20003C20.5107 7.71114 20.7662 8.33892 20.7662 9.08336C20.7662 9.8278 20.5107 10.4556 19.9996 10.9667C19.4885 11.4778 18.8551 11.7334 18.0996 11.7334C17.344 11.7334 16.7107 11.4778 16.1996 10.9667ZM15.0662 19.7L16.1662 22.3334L18.9662 19.5334L18.5996 17.6667C18.0218 18.0667 17.444 18.4278 16.8662 18.75C16.2885 19.0722 15.6885 19.3889 15.0662 19.7ZM26.7662 1.90003C26.944 4.34447 26.544 6.7278 25.5662 9.05003C24.5885 11.3722 23.044 13.5889 20.9329 15.7L21.5996 19C21.6885 19.4445 21.6662 19.8778 21.5329 20.3C21.3996 20.7222 21.1774 21.0889 20.8662 21.4L16.6662 25.6C16.3329 25.9334 15.9329 26.0611 15.4662 25.9834C14.9996 25.9056 14.6774 25.6445 14.4996 25.2L12.4662 20.4334L6.76624 14.7334L1.99958 12.7C1.55513 12.5222 1.28847 12.2 1.19958 11.7334C1.11069 11.2667 1.23291 10.8667 1.56624 10.5334L5.76624 6.33336C6.07735 6.02225 6.44958 5.80003 6.88291 5.66669C7.31624 5.53336 7.75513 5.51114 8.19958 5.60003L11.4996 6.26669C13.6107 4.15558 15.8274 2.61114 18.1496 1.63336C20.4718 0.655582 22.8551 0.255582 25.2996 0.43336C25.4774 0.455582 25.6551 0.505582 25.8329 0.58336C26.0107 0.661137 26.1662 0.766693 26.2996 0.900026C26.4329 1.03336 26.5385 1.18892 26.6162 1.36669C26.694 1.54447 26.744 1.72225 26.7662 1.90003ZM3.23291 18.3C4.01069 17.5222 4.96069 17.1278 6.08291 17.1167C7.20513 17.1056 8.15513 17.4889 8.93291 18.2667C9.71069 19.0445 10.094 19.9945 10.0829 21.1167C10.0718 22.2389 9.67735 23.1889 8.89958 23.9667C7.83291 25.0334 6.5718 25.6667 5.11624 25.8667C3.66069 26.0667 2.19958 26.2667 0.73291 26.4667C0.93291 25 1.13291 23.5389 1.33291 22.0834C1.53291 20.6278 2.16624 19.3667 3.23291 18.3ZM5.13291 20.1667C4.75513 20.5445 4.49402 21 4.34958 21.5334C4.20513 22.0667 4.08847 22.6111 3.99958 23.1667C4.55513 23.0778 5.09958 22.9667 5.63291 22.8334C6.16624 22.7 6.6218 22.4445 6.99958 22.0667C7.26624 21.8 7.41069 21.4778 7.43291 21.1C7.45513 20.7222 7.33291 20.4 7.06624 20.1334C6.79958 19.8667 6.47735 19.7389 6.09958 19.75C5.7218 19.7611 5.39958 19.9 5.13291 20.1667Z" fill="#BCCAFD"/>
</svg>
