<svg width="28" height="28" viewBox="0 0 28 28" fill="none" xmlns="http://www.w3.org/2000/svg">
<path d="M8.3335 27.3334C7.60016 27.3334 6.97239 27.0722 6.45016 26.55C5.92794 26.0278 5.66683 25.4 5.66683 24.6667C5.66683 23.9334 5.92794 23.3056 6.45016 22.7834C6.97239 22.2611 7.60016 22 8.3335 22C9.06683 22 9.69461 22.2611 10.2168 22.7834C10.7391 23.3056 11.0002 23.9334 11.0002 24.6667C11.0002 25.4 10.7391 26.0278 10.2168 26.55C9.69461 27.0722 9.06683 27.3334 8.3335 27.3334ZM21.6668 27.3334C20.9335 27.3334 20.3057 27.0722 19.7835 26.55C19.2613 26.0278 19.0002 25.4 19.0002 24.6667C19.0002 23.9334 19.2613 23.3056 19.7835 22.7834C20.3057 22.2611 20.9335 22 21.6668 22C22.4002 22 23.0279 22.2611 23.5502 22.7834C24.0724 23.3056 24.3335 23.9334 24.3335 24.6667C24.3335 25.4 24.0724 26.0278 23.5502 26.55C23.0279 27.0722 22.4002 27.3334 21.6668 27.3334ZM3.00016 3.33335H1.66683C1.28905 3.33335 0.972385 3.20558 0.716829 2.95002C0.461274 2.69446 0.333496 2.3778 0.333496 2.00002C0.333496 1.62224 0.461274 1.30558 0.716829 1.05002C0.972385 0.794465 1.28905 0.666687 1.66683 0.666687H3.86683C4.11127 0.666687 4.34461 0.733354 4.56683 0.866687C4.78905 1.00002 4.95572 1.18891 5.06683 1.43335L10.3668 12.6667H19.7002L24.5335 4.00002C24.6446 3.7778 24.8002 3.61113 25.0002 3.50002C25.2002 3.38891 25.4224 3.33335 25.6668 3.33335C26.1779 3.33335 26.5613 3.55002 26.8168 3.98335C27.0724 4.41669 27.0779 4.85558 26.8335 5.30002L22.0668 13.9334C21.8224 14.3778 21.4946 14.7222 21.0835 14.9667C20.6724 15.2111 20.2224 15.3334 19.7335 15.3334H9.80016L8.3335 18H23.0002C23.3779 18 23.6946 18.1278 23.9502 18.3834C24.2057 18.6389 24.3335 18.9556 24.3335 19.3334C24.3335 19.7111 24.2057 20.0278 23.9502 20.2834C23.6946 20.5389 23.3779 20.6667 23.0002 20.6667H8.3335C7.3335 20.6667 6.57238 20.2334 6.05016 19.3667C5.52794 18.5 5.51127 17.6222 6.00016 16.7334L7.80016 13.4667L3.00016 3.33335ZM15.2335 7.33335H11.0002C10.6224 7.33335 10.3057 7.20558 10.0502 6.95002C9.79461 6.69446 9.66683 6.3778 9.66683 6.00002C9.66683 5.62224 9.79461 5.30558 10.0502 5.05002C10.3057 4.79446 10.6224 4.66669 11.0002 4.66669H15.2335L14.0335 3.46669C13.7668 3.20002 13.6391 2.88891 13.6502 2.53335C13.6613 2.1778 13.8002 1.86669 14.0668 1.60002C14.3335 1.35558 14.6446 1.2278 15.0002 1.21669C15.3557 1.20558 15.6668 1.33335 15.9335 1.60002L19.4002 5.06669C19.6668 5.33335 19.8002 5.64446 19.8002 6.00002C19.8002 6.35558 19.6668 6.66669 19.4002 6.93335L15.9335 10.4C15.6891 10.6445 15.3835 10.7722 15.0168 10.7834C14.6502 10.7945 14.3335 10.6667 14.0668 10.4C13.8224 10.1556 13.7002 9.84446 13.7002 9.46669C13.7002 9.08891 13.8224 8.7778 14.0668 8.53335L15.2335 7.33335Z" fill="#BCCAFD"/>
</svg>
