<svg width="23" height="23" viewBox="0 0 23 23" fill="none" xmlns="http://www.w3.org/2000/svg">
<path d="M7.29986 17.9334L11.4999 15.4L15.6999 17.9667L14.5999 13.1667L18.2999 9.96669L13.4332 9.53336L11.4999 5.00003L9.56652 9.50003L4.69986 9.93336L8.39986 13.1667L7.29986 17.9334ZM11.4999 18.5334L5.96652 21.8667C5.72208 22.0222 5.46652 22.0889 5.19986 22.0667C4.93319 22.0445 4.69986 21.9556 4.49986 21.8C4.29986 21.6445 4.1443 21.45 4.03319 21.2167C3.92208 20.9834 3.89986 20.7222 3.96652 20.4334L5.43319 14.1334L0.533191 9.90003C0.310968 9.70003 0.172079 9.47225 0.116524 9.21669C0.0609684 8.96114 0.077635 8.71114 0.166524 8.46669C0.255413 8.22225 0.388746 8.02225 0.566524 7.86669C0.744302 7.71114 0.988746 7.61114 1.29986 7.56669L7.76652 7.00003L10.2665 1.06669C10.3776 0.800026 10.5499 0.600026 10.7832 0.466693C11.0165 0.33336 11.2554 0.266693 11.4999 0.266693C11.7443 0.266693 11.9832 0.33336 12.2165 0.466693C12.4499 0.600026 12.6221 0.800026 12.7332 1.06669L15.2332 7.00003L21.6999 7.56669C22.011 7.61114 22.2554 7.71114 22.4332 7.86669C22.611 8.02225 22.7443 8.22225 22.8332 8.46669C22.9221 8.71114 22.9387 8.96114 22.8832 9.21669C22.8276 9.47225 22.6887 9.70003 22.4665 9.90003L17.5665 14.1334L19.0332 20.4334C19.0999 20.7222 19.0776 20.9834 18.9665 21.2167C18.8554 21.45 18.6999 21.6445 18.4999 21.8C18.2999 21.9556 18.0665 22.0445 17.7999 22.0667C17.5332 22.0889 17.2776 22.0222 17.0332 21.8667L11.4999 18.5334Z" fill="#FF9B78"/>
</svg>
