<svg width="23" height="25" viewBox="0 0 23 25" fill="none" xmlns="http://www.w3.org/2000/svg">
<path d="M3.49998 21.8333H19.5L17.6 8.5H5.39998L3.49998 21.8333ZM11.5 5.83333C11.8778 5.83333 12.1944 5.70556 12.45 5.45C12.7055 5.19444 12.8333 4.87778 12.8333 4.5C12.8333 4.12222 12.7055 3.80556 12.45 3.55C12.1944 3.29444 11.8778 3.16667 11.5 3.16667C11.1222 3.16667 10.8055 3.29444 10.55 3.55C10.2944 3.80556 10.1666 4.12222 10.1666 4.5C10.1666 4.87778 10.2944 5.19444 10.55 5.45C10.8055 5.70556 11.1222 5.83333 11.5 5.83333ZM15.2666 5.83333H17.6C18.2666 5.83333 18.8444 6.05556 19.3333 6.5C19.8222 6.94444 20.1222 7.48889 20.2333 8.13333L22.1333 21.4667C22.2444 22.2667 22.0389 22.9722 21.5166 23.5833C20.9944 24.1944 20.3222 24.5 19.5 24.5H3.49998C2.67775 24.5 2.00553 24.1944 1.48331 23.5833C0.961087 22.9722 0.755531 22.2667 0.866642 21.4667L2.76664 8.13333C2.87775 7.48889 3.17775 6.94444 3.66664 6.5C4.15553 6.05556 4.73331 5.83333 5.39998 5.83333H7.73331C7.66664 5.61111 7.61109 5.39444 7.56664 5.18333C7.5222 4.97222 7.49998 4.74444 7.49998 4.5C7.49998 3.38889 7.88886 2.44444 8.66664 1.66667C9.44442 0.888889 10.3889 0.5 11.5 0.5C12.6111 0.5 13.5555 0.888889 14.3333 1.66667C15.1111 2.44444 15.5 3.38889 15.5 4.5C15.5 4.74444 15.4778 4.97222 15.4333 5.18333C15.3889 5.39444 15.3333 5.61111 15.2666 5.83333Z" fill="#FF9B78"/>
</svg>
