<svg xmlns="http://www.w3.org/2000/svg" version="1.1" xmlns:xlink="http://www.w3.org/1999/xlink" xmlns:svgjs="http://svgjs.dev/svgjs" width="128" height="128" viewBox="0 0 128 128"><g transform="matrix(0.8046875,0,0,0.8046875,12.755172908119746,12.760752631578946)"><svg viewBox="0 0 95 95" data-background-color="#ffffff" preserveAspectRatio="xMidYMid meet" height="128" width="128" xmlns="http://www.w3.org/2000/svg" xmlns:xlink="http://www.w3.org/1999/xlink"><g id="tight-bounds" transform="matrix(1,0,0,1,-0.235353653120157,-0.24049999999999727)"><svg viewBox="0 0 95.4707073062403 95.481" height="95.481" width="95.4707073062403"><g><svg viewBox="0 0 95.4707073062403 95.481" height="95.481" width="95.4707073062403"><g><svg viewBox="0 0 95.4707073062403 95.481" height="95.481" width="95.4707073062403"><g id="textblocktransform"><svg viewBox="0 0 95.4707073062403 95.481" height="95.481" width="95.4707073062403" id="textblock"><g><svg viewBox="0 0 95.4707073062403 95.481" height="95.481" width="95.4707073062403"><g><svg viewBox="0 0 95.4707073062403 95.481" height="95.481" width="95.4707073062403"><g><svg xmlns="http://www.w3.org/2000/svg" xmlns:xlink="http://www.w3.org/1999/xlink" version="1.1" x="0" y="0" viewBox="13.481874992482561 13.474 73.04512500751743 73.05299999999998" enable-background="new 0 0 100 100" xml:space="preserve" height="95.481" width="95.4707073062403" class="icon-icon-0" data-fill-palette-color="accent" id="icon-0"><g fill="#0023ff" data-fill-palette-color="accent"><path d="M81.842 18.16c-3.021-3.022-7.038-4.686-11.312-4.686-4.272 0-8.29 1.664-11.312 4.686l-14.75 14.752c-1.562 1.562-1.562 4.095 0 5.657 1.562 1.562 4.096 1.562 5.656 0l14.752-14.752c1.51-1.51 3.518-2.342 5.653-2.342s4.144 0.832 5.654 2.343c1.51 1.51 2.342 3.517 2.342 5.653s-0.832 4.144-2.342 5.654L61.433 49.875c-1.562 1.562-1.562 4.095 0 5.657 0.781 0.781 1.805 1.172 2.828 1.172 1.022 0 2.048-0.391 2.828-1.172L81.841 40.78c3.021-3.021 4.686-7.038 4.686-11.311C86.526 25.196 84.862 21.18 81.842 18.16z" fill="#ffffff" data-fill-palette-color="accent"></path><path d="M49.875 61.433L35.122 76.185c-1.51 1.51-3.517 2.342-5.653 2.342-2.135 0-4.143-0.832-5.654-2.342-3.116-3.117-3.116-8.19 0-11.309l14.752-14.751c1.563-1.562 1.563-4.095 0-5.657-1.56-1.562-4.095-1.562-5.655 0L18.158 59.22c-6.235 6.237-6.235 16.385 0.001 22.621 3.021 3.021 7.038 4.686 11.31 4.686 4.273 0 8.29-1.664 11.311-4.686l14.752-14.752c1.562-1.562 1.562-4.095 0-5.656C53.971 59.87 51.436 59.87 49.875 61.433z" fill="#ffffff" data-fill-palette-color="accent"></path><path d="M35.985 64.016c0.78 0.781 1.805 1.172 2.828 1.172s2.048-0.391 2.828-1.172l22.374-22.374c1.562-1.562 1.562-4.095 0-5.657-1.561-1.562-4.096-1.562-5.656 0L35.985 58.359C34.423 59.921 34.423 62.454 35.985 64.016z" fill="#ffffff" data-fill-palette-color="accent"></path></g></svg></g></svg></g></svg></g></svg></g></svg></g></svg></g><defs></defs></svg><rect width="95.4707073062403" height="95.481" fill="none" stroke="none" visibility="hidden"></rect></g></svg></g></svg>