<svg xmlns="http://www.w3.org/2000/svg" version="1.1" xmlns:xlink="http://www.w3.org/1999/xlink" xmlns:svgjs="http://svgjs.dev/svgjs" width="1000" height="146" viewBox="0 0 1000 146"><g transform="matrix(1,0,0,1,-0.6060581460951653,0.13167235055718152)"><svg viewBox="0 0 396 58" data-background-color="#ffffff" preserveAspectRatio="xMidYMid meet" height="146" width="1000" xmlns="http://www.w3.org/2000/svg" xmlns:xlink="http://www.w3.org/1999/xlink"><g id="tight-bounds" transform="matrix(1,0,0,1,0.2399993655859589,-0.05230819405696252)"><svg viewBox="0 0 395.52 58.10461638811391" height="58.10461638811391" width="395.52"><g><svg viewBox="0 0 477.6730796985583 70.17347050670938" height="58.10461638811391" width="395.52"><g transform="matrix(1,0,0,1,82.15307969855833,9.698359527338273)"><svg viewBox="0 0 395.52 50.77675145203283" height="50.77675145203283" width="395.52"><g id="textblocktransform"><svg viewBox="0 0 395.52 50.77675145203283" height="50.77675145203283" width="395.52" id="textblock"><g><svg viewBox="0 0 395.52 50.77675145203283" height="50.77675145203283" width="395.52"><g transform="matrix(1,0,0,1,0,0)"><svg width="395.52" viewBox="1 -31.549999237060547 248.52999877929688 32.04999923706055" height="50.77675145203283" data-palette-color="#0023ff"><g class="wordmark-text-0" data-fill-palette-color="primary" id="text-0"><path d="M27.25-31.05L36.7-31.05 33.4 0 21.5 0 19.15-12.6 18.75-12.6 16.75 0 4.85 0 1-31.05 10.8-31.05 12.05-16.8 12.5-16.8 14.4-31.05 23.85-31.05 25.95-16.8 26.3-16.8 27.25-31.05ZM38.7-15.73Q38.7-24.05 42.02-27.8 45.35-31.55 52.97-31.55 60.6-31.55 63.87-27.85 67.15-24.15 67.15-15.83 67.15-7.5 63.77-3.5 60.4 0.5 52.87 0.5 45.35 0.5 42.02-3.45 38.7-7.4 38.7-15.73ZM55.75-21.68Q55.1-22.95 52.95-22.95 50.8-22.95 50.2-21.7 49.6-20.45 49.6-16.35L49.6-16.35 49.6-14.15Q49.6-9.95 50.25-8.7 50.9-7.45 53.1-7.45 55.3-7.45 55.85-8.65 56.4-9.85 56.4-14L56.4-14 56.4-16.3Q56.4-20.4 55.75-21.68ZM94.7-21.05L94.7-21.05Q94.7-18.05 93.72-16.28 92.75-14.5 90.7-13.15L90.7-13.15 95.35 0 84.3 0 81.2-10.7 80.4-10.7 80.4 0 70.15 0 70.15-31.05 83.4-31.05Q89.2-31.05 91.95-28.63 94.7-26.2 94.7-21.05ZM81.45-16.8Q82.6-16.8 83.07-17.48 83.55-18.15 83.55-19.85 83.55-21.55 83.05-22.2 82.55-22.85 81.5-22.85L81.5-22.85 80.2-22.85 80.2-16.8 81.45-16.8ZM117.64-8.05L116.94 0 98.29 0 98.29-31.05 108.99-31.05 108.99-8.05 117.64-8.05ZM145.79-16.2L145.79-16.2Q145.79 0 130.99 0L130.99 0 118.94 0 118.94-31.05 131.24-31.05Q139.19-31.05 142.49-27.23 145.79-23.4 145.79-16.2ZM130.84-7.8Q133.39-7.8 134.14-9.55 134.89-11.3 134.89-15.38 134.89-19.45 134.07-21.18 133.24-22.9 130.64-22.9L130.64-22.9 129.59-22.9 129.59-7.8 130.84-7.8Z" fill="#ffffff" data-fill-palette-color="primary"></path><path d="M176.64-8.05L175.94 0 157.29 0 157.29-31.05 167.99-31.05 167.99-8.05 176.64-8.05ZM188.79-31.05L188.79 0 178.24 0 178.24-31.05 188.79-31.05ZM219.43-31.05L219.43 0 209.23 0 202.93-12.25 202.58-12.25 202.58 0 193.08 0 193.08-31.05 203.63-31.05 209.53-18.4 209.83-18.4 209.83-31.05 219.43-31.05ZM243.08-14.9L249.03 0 237.28 0 234.13-10.3 233.58-10.3 233.58 0 223.43 0 223.43-31.05 233.58-31.05 233.58-18.75 234.13-18.75 238.08-31.05 249.53-31.05 243.08-14.9Z" fill="#ffffff" data-fill-palette-color="primary"></path></g></svg></g></svg></g></svg></g></svg></g><g><svg viewBox="0 0 70.16590732276822 70.17347050670938" height="70.17347050670938" width="70.16590732276822"><g><svg xmlns="http://www.w3.org/2000/svg" xmlns:xlink="http://www.w3.org/1999/xlink" version="1.1" x="0" y="0" viewBox="13.4818754196167 13.473999977111816 73.04512786865234 73.0530014038086" enable-background="new 0 0 100 100" xml:space="preserve" height="70.17347050670938" width="70.16590732276822" class="icon-icon-0" data-fill-palette-color="accent" id="icon-0"><g fill="#0023ff" data-fill-palette-color="accent"><path d="M81.842 18.16c-3.021-3.022-7.038-4.686-11.312-4.686-4.272 0-8.29 1.664-11.312 4.686l-14.75 14.752c-1.562 1.562-1.562 4.095 0 5.657 1.562 1.562 4.096 1.562 5.656 0l14.752-14.752c1.51-1.51 3.518-2.342 5.653-2.342s4.144 0.832 5.654 2.343c1.51 1.51 2.342 3.517 2.342 5.653s-0.832 4.144-2.342 5.654L61.433 49.875c-1.562 1.562-1.562 4.095 0 5.657 0.781 0.781 1.805 1.172 2.828 1.172 1.022 0 2.048-0.391 2.828-1.172L81.841 40.78c3.021-3.021 4.686-7.038 4.686-11.311C86.526 25.196 84.862 21.18 81.842 18.16z" fill="#ffffff" data-fill-palette-color="accent"></path><path d="M49.875 61.433L35.122 76.185c-1.51 1.51-3.517 2.342-5.653 2.342-2.135 0-4.143-0.832-5.654-2.342-3.116-3.117-3.116-8.19 0-11.309l14.752-14.751c1.563-1.562 1.563-4.095 0-5.657-1.56-1.562-4.095-1.562-5.655 0L18.158 59.22c-6.235 6.237-6.235 16.385 0.001 22.621 3.021 3.021 7.038 4.686 11.31 4.686 4.273 0 8.29-1.664 11.311-4.686l14.752-14.752c1.562-1.562 1.562-4.095 0-5.656C53.971 59.87 51.436 59.87 49.875 61.433z" fill="#ffffff" data-fill-palette-color="accent"></path><path d="M35.985 64.016c0.78 0.781 1.805 1.172 2.828 1.172s2.048-0.391 2.828-1.172l22.374-22.374c1.562-1.562 1.562-4.095 0-5.657-1.561-1.562-4.096-1.562-5.656 0L35.985 58.359C34.423 59.921 34.423 62.454 35.985 64.016z" fill="#ffffff" data-fill-palette-color="accent"></path></g></svg></g></svg></g></svg></g><defs></defs></svg><rect width="395.52" height="58.10461638811391" fill="none" stroke="none" visibility="hidden"></rect></g></svg></g></svg>